<mxfile host="app.diagrams.net" modified="2024-04-15T11:33:21.694Z" agent="Mozilla/5.0 (Windows NT 10.0; Win64; x64) AppleWebKit/537.36 (KHTML, like Gecko) Chrome/123.0.0.0 Safari/537.36 Edg/123.0.0.0" etag="sWHfZn6xUUk1N9HEi6Dh" version="24.2.5" type="device">
  <diagram name="Page-1" id="GO_vuIHSftJO_R0T8l3U">
    <mxGraphModel dx="1042" dy="569" grid="1" gridSize="10" guides="1" tooltips="1" connect="1" arrows="1" fold="1" page="1" pageScale="1" pageWidth="827" pageHeight="1169" math="0" shadow="0">
      <root>
        <mxCell id="0" />
        <mxCell id="1" parent="0" />
        <mxCell id="v2p4-wpdb8EsmFi-8sYn-3" style="edgeStyle=orthogonalEdgeStyle;rounded=0;orthogonalLoop=1;jettySize=auto;html=1;entryX=0.5;entryY=0;entryDx=0;entryDy=0;" parent="1" source="v2p4-wpdb8EsmFi-8sYn-1" target="v2p4-wpdb8EsmFi-8sYn-2" edge="1">
          <mxGeometry relative="1" as="geometry" />
        </mxCell>
        <mxCell id="v2p4-wpdb8EsmFi-8sYn-1" value="&lt;font style=&quot;font-size: 19px;&quot;&gt;AI Turn&lt;/font&gt;" style="rounded=0;whiteSpace=wrap;html=1;" parent="1" vertex="1">
          <mxGeometry x="354" y="130" width="120" height="60" as="geometry" />
        </mxCell>
        <mxCell id="v2p4-wpdb8EsmFi-8sYn-5" style="edgeStyle=orthogonalEdgeStyle;rounded=0;orthogonalLoop=1;jettySize=auto;html=1;entryX=0.5;entryY=0;entryDx=0;entryDy=0;fontSize=14;" parent="1" source="v2p4-wpdb8EsmFi-8sYn-2" target="2Zol69wpmdTRaXrWs5jN-1" edge="1">
          <mxGeometry relative="1" as="geometry">
            <mxPoint x="224" y="307" as="targetPoint" />
          </mxGeometry>
        </mxCell>
        <mxCell id="v2p4-wpdb8EsmFi-8sYn-6" value="Yes" style="edgeLabel;html=1;align=center;verticalAlign=middle;resizable=0;points=[];fontSize=14;" parent="v2p4-wpdb8EsmFi-8sYn-5" vertex="1" connectable="0">
          <mxGeometry x="-0.0857" y="2" relative="1" as="geometry">
            <mxPoint as="offset" />
          </mxGeometry>
        </mxCell>
        <mxCell id="v2p4-wpdb8EsmFi-8sYn-8" style="edgeStyle=orthogonalEdgeStyle;rounded=0;orthogonalLoop=1;jettySize=auto;html=1;entryX=0.5;entryY=0;entryDx=0;entryDy=0;fontSize=14;" parent="1" source="v2p4-wpdb8EsmFi-8sYn-2" target="v2p4-wpdb8EsmFi-8sYn-11" edge="1">
          <mxGeometry relative="1" as="geometry">
            <mxPoint x="604" y="340" as="targetPoint" />
          </mxGeometry>
        </mxCell>
        <mxCell id="v2p4-wpdb8EsmFi-8sYn-9" value="No" style="edgeLabel;html=1;align=center;verticalAlign=middle;resizable=0;points=[];fontSize=14;" parent="v2p4-wpdb8EsmFi-8sYn-8" vertex="1" connectable="0">
          <mxGeometry x="-0.4309" y="-2" relative="1" as="geometry">
            <mxPoint as="offset" />
          </mxGeometry>
        </mxCell>
        <mxCell id="v2p4-wpdb8EsmFi-8sYn-2" value="Is first hand?" style="rhombus;whiteSpace=wrap;html=1;fontSize=14;" parent="1" vertex="1">
          <mxGeometry x="348" y="230" width="132" height="80" as="geometry" />
        </mxCell>
        <mxCell id="v2p4-wpdb8EsmFi-8sYn-13" style="edgeStyle=orthogonalEdgeStyle;rounded=0;orthogonalLoop=1;jettySize=auto;html=1;fontSize=14;" parent="1" source="v2p4-wpdb8EsmFi-8sYn-11" target="v2p4-wpdb8EsmFi-8sYn-12" edge="1">
          <mxGeometry relative="1" as="geometry" />
        </mxCell>
        <mxCell id="v2p4-wpdb8EsmFi-8sYn-14" value="Yes" style="edgeLabel;html=1;align=center;verticalAlign=middle;resizable=0;points=[];fontSize=14;" parent="v2p4-wpdb8EsmFi-8sYn-13" vertex="1" connectable="0">
          <mxGeometry x="-0.2578" y="-1" relative="1" as="geometry">
            <mxPoint x="-18" as="offset" />
          </mxGeometry>
        </mxCell>
        <mxCell id="v2p4-wpdb8EsmFi-8sYn-16" style="edgeStyle=orthogonalEdgeStyle;rounded=0;orthogonalLoop=1;jettySize=auto;html=1;entryX=0.5;entryY=0;entryDx=0;entryDy=0;fontSize=14;" parent="1" source="v2p4-wpdb8EsmFi-8sYn-11" target="jcsPhIMI6SigCbqetUnk-2" edge="1">
          <mxGeometry relative="1" as="geometry">
            <mxPoint x="705" y="436" as="targetPoint" />
          </mxGeometry>
        </mxCell>
        <mxCell id="v2p4-wpdb8EsmFi-8sYn-17" value="No" style="edgeLabel;html=1;align=center;verticalAlign=middle;resizable=0;points=[];fontSize=14;" parent="v2p4-wpdb8EsmFi-8sYn-16" vertex="1" connectable="0">
          <mxGeometry x="0.1671" y="-2" relative="1" as="geometry">
            <mxPoint x="-24" as="offset" />
          </mxGeometry>
        </mxCell>
        <mxCell id="v2p4-wpdb8EsmFi-8sYn-11" value="Doubt?" style="rhombus;whiteSpace=wrap;html=1;fontSize=14;" parent="1" vertex="1">
          <mxGeometry x="520" y="297" width="160" height="80" as="geometry" />
        </mxCell>
        <mxCell id="v2p4-wpdb8EsmFi-8sYn-12" value="&lt;b style=&quot;font-size: 14px;&quot;&gt;Doubt&lt;/b&gt;" style="rounded=0;whiteSpace=wrap;html=1;fontSize=14;" parent="1" vertex="1">
          <mxGeometry x="435" y="436" width="120" height="60" as="geometry" />
        </mxCell>
        <mxCell id="jcsPhIMI6SigCbqetUnk-1" value="&lt;b&gt;Bluff&lt;span style=&quot;color: rgba(0, 0, 0, 0); font-family: monospace; font-size: 0px; text-align: start; text-wrap: nowrap;&quot;&gt;%3CmxGraphModel%3E%3Croot%3E%3CmxCell%20id%3D%220%22%2F%3E%3CmxCell%20id%3D%221%22%20parent%3D%220%22%2F%3E%3CmxCell%20id%3D%222%22%20value%3D%22%26lt%3Bb%20style%3D%26quot%3Bfont-size%3A%2014px%3B%26quot%3B%26gt%3BBluff%26lt%3B%2Fb%26gt%3B%22%20style%3D%22rounded%3D0%3BwhiteSpace%3Dwrap%3Bhtml%3D1%3BfontSize%3D14%3B%22%20vertex%3D%221%22%20parent%3D%221%22%3E%3CmxGeometry%20x%3D%2250%22%20y%3D%22470%22%20width%3D%22120%22%20height%3D%2260%22%20as%3D%22geometry%22%2F%3E%3C%2FmxCell%3E%3C%2Froot%3E%3C%2FmxGraphModel%3&lt;/span&gt;&lt;/b&gt;" style="rounded=0;whiteSpace=wrap;html=1;fontSize=14;" parent="1" vertex="1">
          <mxGeometry x="565" y="560" width="120" height="54" as="geometry" />
        </mxCell>
        <mxCell id="jcsPhIMI6SigCbqetUnk-6" style="edgeStyle=none;curved=1;rounded=0;orthogonalLoop=1;jettySize=auto;html=1;entryX=0.5;entryY=0;entryDx=0;entryDy=0;fontSize=12;startSize=8;endSize=8;" parent="1" source="jcsPhIMI6SigCbqetUnk-2" target="jcsPhIMI6SigCbqetUnk-1" edge="1">
          <mxGeometry relative="1" as="geometry" />
        </mxCell>
        <mxCell id="jcsPhIMI6SigCbqetUnk-7" value="Yes" style="edgeLabel;html=1;align=center;verticalAlign=middle;resizable=0;points=[];fontSize=12;" parent="jcsPhIMI6SigCbqetUnk-6" vertex="1" connectable="0">
          <mxGeometry x="-0.1835" y="1" relative="1" as="geometry">
            <mxPoint as="offset" />
          </mxGeometry>
        </mxCell>
        <mxCell id="jcsPhIMI6SigCbqetUnk-8" style="edgeStyle=none;curved=1;rounded=0;orthogonalLoop=1;jettySize=auto;html=1;entryX=0.5;entryY=0;entryDx=0;entryDy=0;fontSize=12;startSize=8;endSize=8;" parent="1" source="jcsPhIMI6SigCbqetUnk-2" target="jcsPhIMI6SigCbqetUnk-3" edge="1">
          <mxGeometry relative="1" as="geometry" />
        </mxCell>
        <mxCell id="jcsPhIMI6SigCbqetUnk-9" value="No" style="edgeLabel;html=1;align=center;verticalAlign=middle;resizable=0;points=[];fontSize=12;" parent="jcsPhIMI6SigCbqetUnk-8" vertex="1" connectable="0">
          <mxGeometry x="0.0267" y="-1" relative="1" as="geometry">
            <mxPoint as="offset" />
          </mxGeometry>
        </mxCell>
        <mxCell id="jcsPhIMI6SigCbqetUnk-2" value="Bluff?" style="rhombus;whiteSpace=wrap;html=1;fontSize=14;" parent="1" vertex="1">
          <mxGeometry x="620" y="436" width="160" height="80" as="geometry" />
        </mxCell>
        <mxCell id="jcsPhIMI6SigCbqetUnk-3" value="&lt;b&gt;Play Honest&lt;/b&gt;" style="rounded=0;whiteSpace=wrap;html=1;fontSize=14;" parent="1" vertex="1">
          <mxGeometry x="715" y="560" width="120" height="54" as="geometry" />
        </mxCell>
        <mxCell id="2Zol69wpmdTRaXrWs5jN-3" style="edgeStyle=orthogonalEdgeStyle;rounded=0;orthogonalLoop=1;jettySize=auto;html=1;entryX=0.5;entryY=0;entryDx=0;entryDy=0;" edge="1" parent="1" source="2Zol69wpmdTRaXrWs5jN-1" target="2Zol69wpmdTRaXrWs5jN-2">
          <mxGeometry relative="1" as="geometry" />
        </mxCell>
        <mxCell id="2Zol69wpmdTRaXrWs5jN-4" value="Yes" style="edgeLabel;html=1;align=center;verticalAlign=middle;resizable=0;points=[];fontSize=14;" vertex="1" connectable="0" parent="2Zol69wpmdTRaXrWs5jN-3">
          <mxGeometry x="0.0337" y="1" relative="1" as="geometry">
            <mxPoint x="8" y="-1" as="offset" />
          </mxGeometry>
        </mxCell>
        <mxCell id="2Zol69wpmdTRaXrWs5jN-6" style="edgeStyle=orthogonalEdgeStyle;rounded=0;orthogonalLoop=1;jettySize=auto;html=1;" edge="1" parent="1" source="2Zol69wpmdTRaXrWs5jN-1" target="2Zol69wpmdTRaXrWs5jN-5">
          <mxGeometry relative="1" as="geometry" />
        </mxCell>
        <mxCell id="2Zol69wpmdTRaXrWs5jN-7" value="No" style="edgeLabel;html=1;align=center;verticalAlign=middle;resizable=0;points=[];fontSize=14;" vertex="1" connectable="0" parent="2Zol69wpmdTRaXrWs5jN-6">
          <mxGeometry x="0.1725" y="2" relative="1" as="geometry">
            <mxPoint x="-20" as="offset" />
          </mxGeometry>
        </mxCell>
        <mxCell id="2Zol69wpmdTRaXrWs5jN-1" value="Bluff?" style="rhombus;whiteSpace=wrap;html=1;fontSize=14;" vertex="1" parent="1">
          <mxGeometry x="140" y="310" width="160" height="80" as="geometry" />
        </mxCell>
        <mxCell id="2Zol69wpmdTRaXrWs5jN-2" value="&lt;b style=&quot;font-size: 14px;&quot;&gt;Bluff&lt;/b&gt;" style="rounded=0;whiteSpace=wrap;html=1;fontSize=14;" vertex="1" parent="1">
          <mxGeometry x="65" y="470" width="120" height="60" as="geometry" />
        </mxCell>
        <mxCell id="2Zol69wpmdTRaXrWs5jN-5" value="&lt;b style=&quot;font-size: 14px;&quot;&gt;Play Honest&lt;/b&gt;" style="rounded=0;whiteSpace=wrap;html=1;fontSize=14;" vertex="1" parent="1">
          <mxGeometry x="255" y="470" width="120" height="60" as="geometry" />
        </mxCell>
      </root>
    </mxGraphModel>
  </diagram>
</mxfile>
